<svg width="16" height="16" viewBox="0 0 16 16" fill="none" xmlns="http://www.w3.org/2000/svg">
<rect width="16" height="16" rx="3" fill="#101011"/>
<path d="M11.8 10.2057C11.9105 10.2057 12 10.2953 12 10.4057V11.8C12 11.9105 11.9105 12 11.8 12H4.2C4.08954 12 4 11.9105 4 11.8V10.8318C4 10.6724 4.06341 10.5196 4.17624 10.407L8.6288 5.96508C8.69191 5.90212 8.64732 5.79429 8.55817 5.79429H4.2C4.08954 5.79429 4 5.70474 4 5.59429V4.2C4 4.08954 4.08954 4 4.2 4H11.8C11.9105 4 12 4.08954 12 4.2V5.17206C12 5.32915 11.9384 5.47997 11.8284 5.59214L7.47133 10.0357C7.40929 10.099 7.45411 10.2057 7.54273 10.2057H11.8Z" fill="white"/>
</svg>
